<?xml version="1.0" encoding="utf-8"?>

<!DOCTYPE svg PUBLIC "-//W3C//DTD SVG 1.1//EN" "http://www.w3.org/Graphics/SVG/1.1/DTD/svg11.dtd">
<svg version="1.1" id="Layer_1" xmlns="http://www.w3.org/2000/svg" xmlns:xlink="http://www.w3.org/1999/xlink" x="0px" y="0px"
	 viewBox="45 235.1974 2069 1688.6051" enable-background="new 45 235.1974 2069 1688.6051" xml:space="preserve">
<g>
	<path d="M279.24,805.61C279.88,805.5801,278.26,804.1799,279.24,805.61L279.24,805.61z"/>
	<path d="M2051.26,1344.9301C2051.4399,1348.15,2051.05,1337.38,2051.26,1344.9301L2051.26,1344.9301z"/>
	<path d="M2019.6616,1277.4934c-3.3452-4.045-27.4629-38.2399-27.3416-41.6334c-6.3601-8.5552-11.6475-17.7615-17.6702-26.58
		c-9.2676-15.8171-32.7749-31.78-31.3477-45.348c0.1531-1.4567-5.3281-40.9279-4.8564-59.8409
		c0.1563-6.2643,0.6052-12.5161,0.824-18.7781c0.1204-3.1301,0.1504-6.2611,0.0901-9.3929c2.2512-0.678,4.3208-1.7175,6.2083-3.1187
		c3.7256-2.7572,6.5129-6.7262,7.9316-11.1309c2.6936-8.3621-2.5461-8.4099-8.6047-12.6016
		c-17.9863-12.4448-31.7014-32.7302-34.9678-54.5108c-1.7104-11.4076-0.7971-23.1426,2.0227-34.2982
		c3.2786-11.7263,9.8894-22.0496,12.3799-34.0149c5.1375-24.6799,6.0684-50.1635-6.136-73.0353
		c-10.4302-19.547-26.1328-37.1539-47.8379-44.0612c-21.8213-6.9438-46.8564,8.0649-61.936,22.2813
		c-7.6119,9.6945-10.4473,21.2185-16.2627,31.8585c-5.1027,9.3359-14.3403,11.2444-22.4395,15.1125
		c-1.6232,0.7752-2.1877,2.8041-1.1824,4.2957c2.5867,3.838,4.5784,7.0406,2.7139,12.2426
		c-0.6821,1.8608-1.6226,3.5785-2.8215,5.1531c-0.8075,2.8062,0.4407,5.7109-0.4077,8.5176
		c-3.5613,3.3004,0.2625,9.6152,0.3101,14.25c-5.238,5.6432-6.73,12.7382,1.5522,16.1462
		c13.1746,5.4213,6.0786,18.4318-5.4324,18.3038c-10.375-7.5815-12.0933-23.1615-17.9099-34.29
		c-12.688-29.728-33.6758-54.8112-55.6713-78.0968c-10.0675-10.6581-20.8488-21.1498-29.1801-33.2694
		c-3.2849-4.7786-5.9941-9.7573-8.6886-14.8328c-2.1198-3.9927-3.7909-8.2056-5.2643-12.4729
		c-0.3335-0.9664-6.2839-21.0314-7.6438-28.0743c-0.847-4.3873-2.0513-8.6816-2.8445-13.08
		c-0.1473-0.8167-7.3417-46.4204-12.0576-63.7938c-4.1504-17.2264-10.1606-34.3549-20.4001-48.9697
		c-10.7939-15.4061-27.4607-22.9364-43.2598-32.1603c-15.4866-8.8929-32.9087-13.533-44.4375-27.967
		c-10.9338-13.6895-7.4884-29.4763-4.7358-45.9141c1.699-10.1465,5.6736-10.2996,15.3074-11.2739
		c11.0391-1.1167,18.0409-3.6721,18.4846-15.4197c0.1111-2.9391-0.3639-7.3276,1.9969-9.5806
		c2.2513-2.1482,6.239-3.1621,9.015-4.491c3.3103-1.5846,6.5822-3.2498,9.8115-4.9934c8.3853-4.5275,16.4421-9.509,23.9502-15.3625
		c6.5244-5.0867,13.3572-10.9297,17.3032-18.3435c0.3049-0.5728,2.7332-7.9229,2.2944-7.8542
		c-18.9978,3.0386-37.6852,7.441-56.5496,11.3518c-4.5863,0.9507-9.1891,1.8259-13.8152,2.5614
		c-6.8297,1.0858-5.6438-1.0907-5.5413-7.1434c0.1588-9.3682-0.8342-18.1532-2.9241-27.2317
		c-3.9441-17.1351-11.1959-35.3033-23.9758-47.7312c-14.3936-13.9967-35.4087-20.0446-55.0327-19.8013
		c-40.7537,0.5051-72.1792,31.9539-71.5455,72.9592c0.0638,4.1355,1.8031,14.1136-1.6385,17.123
		c-3.8458,3.3625-74.1653,5.5261-78.5525,5.4851c-3.8213-0.0358-7.2151-0.9502-4.9038,3.488
		c4.8402,9.2952,19.5542,13.0383,28.5112,16.5057c11.78,4.5603,23.6987,9.1417,35.5618,13.481
		c5.2898,1.9349,10.7117,3.5413,16.2546,4.568c5.3145,0.9845,16.5205-0.366,14.4385,7.0305
		c-1.401,4.9771-3.8518,8.3872-6.3796,12.7722c-4.6151,8.0059,2.9948,9.1945,9.1025,10.2415
		c-0.6328,2.437-1.0862,4.9071-1.3601,7.41c2.4796,2.7238,3.8274,3.5612,3.9487,7.3037c-0.126,2.2393,0.6624,4.1163,2.3651,5.6312
		c3.0626,3.9841,0.9261,5.6953-1.1383,9.8162c-7.5388,15.0488,23.6038,9.2688,29.3831,8.1292
		c5.8085-1.1455,14.5198-5.3848,15.325,2.5107c0.4668,4.5776,0.9886,15.4303-2.8647,18.8503
		c-9.8635,8.7539-27.1096,14.2021-39.3635,18.6094c-25.7039,9.2446-55.4016,17.3018-75.8259,36.6851
		c-14.8525,14.0956-17.8152,35.2168-17.8716,54.7229c-0.0178,6.2075-0.0502,12.5619,0.7467,18.6885
		c0.746,5.7345-0.2755,12.1759-1.0485,17.8853c-1.1118,8.2124-2.9922,16.3209-5.6115,24.1836
		c-1.3044,3.9158-3.0026,7.7029-4.3392,11.5837c-1.2903,3.7461-3.6038,7.0138-5.0776,10.6985
		c-3.063,7.5657-5.6885,15.3021-8.7484,22.8668c-0.098,0.2423-0.1954,0.485-0.2992,0.725l-0.13-1.14
		c-2.4052,15.1615-9.7771,24.6713-12.4401,39.5c-1.137,0.119-3.729,17.9384-4.0624,20.235
		c-1.4899,10.2632-0.7472,20.942-3.1676,31.145c-5.2307-3.447-4.2665-11.4424-5.3999-16.81
		c-1.9395-8.1476-11.1609-39.4214-12.0901-41.61c-1.2468-4.4449-3.7417-8.5321-6.4844-12.7303
		c-7.3932-11.3167-11.9225-26.4897-7.6454-40.4297c5.2426,1.1781,7.2123-1.9773,6.8973-6.8215
		c-0.3384-5.2039-1.8479-10.2203-2.9763-15.2847c-1.3914-6.2441-0.9548-12.3423-1.188-18.8435
		c-0.3077-8.5826-0.2679-17.1716-0.0088-25.7559c0.8372-27.7378-5.0646-54.9285-12.4309-81.4913
		c-2.8303-10.2058-5.8932-20.3448-8.9573-30.4823c-2.239-7.4075-4.7207-15.3613-10.2717-21.0242
		c-6.3989-6.528-14.4756-10.8611-21.5549-16.5762c-7.1584-5.7791-13.3948-11.5181-22.3975-14.2437
		c-9.6239-2.9137-19.7328-4.2981-28.9817-8.3945c-6.8896-3.0516-12.8352-6.9597-15.0905-14.4963
		c-1.5773-5.2703-0.9811-6.2706,4.42-6.6259c3.2267-3.9045,3.8683-5.7472,4.9113-10.985c0.5585-2.8051,1.0181-7.3713,3.4115-9.3782
		c2.3801-1.9957,6.1105-1.7312,7.9473-4.5068c-0.686-3.3948-1.8099-5.3921,1.1299-7.8038c3.4141-2.8007,1.9956-7.4657,1.92-11.7062
		c4.2162-0.2363,9.7742,2.2202,12.9501-1.8501c0.7217-7.3467,0.1006-14.7273-0.3201-22.0699
		c-0.2697-6.2024-1.4243-13.3649,4.5078-16.9586c8.3088-5.0336,8.304-11.4611,8.2041-20.6381
		c-0.1328-12.2208-8.3068-30.926,8.1658-34.149c12.4246-2.4309,23.2095-14.1312,27.2124-25.9343
		c-5.8334,0.6487-8.061,9.1852-13.8579,2.609c-5.4288-6.1591-11.3689-11.7932-16.8921-17.869
		c-11.2534-11.2524-28.574-20.5775-43.1738-26.6421c-14.9182-6.1967-26.918-12.7451-43.6537-12.9128
		c-19.0494-0.1908-35.0516,4.6626-50.8282,15.4819c-27.7233,19.0122-41.5819,56.2715-36.1272,88.7891
		c5.3359,31.8101,15.8953,81.3789-19.3372,101.064c-14.6967,9.8525-32.8511,5.9929-49.619,7.323
		c-18.6138,1.4766-38.1637-0.0935-56.3704,4.5938c-34.6193,8.9126-53.7672,49.3281-61.8217,80.9562
		c-9.1269,35.8396-11.1079,73.4796-24.7121,108.1482c-9.6189,24.5127-25.8331,50.6544-46.1068,67.9116
		c-8.0519,6.8539-16.1726,13.4491-24.3649,20.0377c-7.6895,6.1846-14.7798,15.4141-23.3251,20.2896
		c-1.3744-7.2046-3.9116-17.5206-4.06-16.3999c-0.3333-4.5302-12.9468-55.1133-16.665-55.155
		c-3.0255-0.0341-12.8774-26.8706-14.4256-30.0969c-3.2301-6.731-6.6815-13.3835-10.8994-19.5581
		c-5.4058-0.9375-8.2305-6.0925-10.88-10.3c1.0244-0.4443,2.0477-0.8909,3.07-1.34c-8.7251-11.7347-20.9811-22.7723-36.1422-22.8247
		c-17.7899-0.0614-33.8466,5.5658-49.5716,13.7159c-3.9981,2.0723-7.9419,4.2523-11.7862,6.5989
		c0.3778,4.5524,0.3059,4.7472-2.6697,7.7688c-5.9557,6.048-12.8531,11.1051-18.7303,17.311
		c-1.3489,2.7051-3.9764,4.2527-6.7556,5.1216c-4.0221,1.2576-4.9096,3.4475-7.0933,7.0952
		c-1.9712,3.2925-3.7046,6.7273-5.1799,10.27c-0.7768,1.8652-2.408,12.1538-3.4011,6.7632c-0.066,3.0339-0.476,6.0205-1.23,8.9601
		c-0.2433-0.3367-0.4866-0.6733-0.73-1.01c-0.0181,6.8445-2.0436,13.2062-2.41,20.1c-0.2433-0.3132-0.4867-0.6267-0.73-0.9399
		c0.4914,13.1123-1.1261,27.0474-1.8486,40.1672c-0.8456,15.3557,0.9999,31.1082,1.4149,46.4883
		c0.4273,15.834,2.1201,31.4739,1.7337,47.3644c-1.9917,2.2818-19.7369,4.3241-22.96,4.6
		c-16.4698,4.8636-35.9756,9.6665-45.69,27.41c-4.7811,8.3563-8.9885,16.3712-9.6006,26.3438
		c-0.3556,5.7941,0.9456,12.3813,6.2214,15.6974c2.4958,1.5687,5.4468,2.3331,8.3491,2.6489
		c1.5088,4.2659,1.5672,8.8267,1.1016,13.2718c-2.9207,27.8872-15.1846,52.7013-34.7716,72.3983
		c-3.7974,3.6675-10.0393,11.8062-13.5139,5.3284c-2.8894-5.3867-6.9221-9.8088-11.1351-14.1847
		c-10.4937-10.899-25.9354-12.2943-39.6325-16.9179c-12.4901-4.2162-22.9134-10.1318-31.1284-20.5558
		c-5.7394-5.9938-12.3321-26.9741-4.8556-33.2063c6.5454-5.4561,10.1993-11.0745,17.6956-17.0637
		c3.4134-5.2469,2.5721-8.9462,8.37-11.28c0.8755-3.0641,0.4431-4.6236,3.73-5.8562c4.351-1.6317,2.5273-6.5533,2.54-10.6938
		c2.4651,0.3224,4.8918,0.8291,7.28,1.52c-5.3808-2.8101,1.8198-17.9279-5.25-10.11c0.531-6.2228-1.6457-8.4437,1.1312-14.6325
		c2.5601-5.7053,2.9672-8.6959,1.3488-14.8075c-0.4824,1.8527-0.9625,3.7061-1.44,5.56c-0.3397-5.4055-0.4214-10.8469,0.16-16.24
		c-1.24,0.0966-2.48,0.1933-3.72,0.29c0.5082-4.4232,3.8306-7.98,0.29-11.1801c-2.6096-2.3586-2.0949-3.8482-2.3-7.2599
		c-4.6294-1.6158-3.4505-3.3268-4.4415-7.8092c-1.4759-6.6758-7.7141-7.4575-8.3785-14.2908
		c-3.6899-2.071-4.7441-18.9976-10.03-10.16c-0.8091-5.9865-0.5972-7.7577-6.76-10.15c-0.0517,1.4666-0.0983,2.9331-0.14,4.4
		c-1.8583-4.1843-2.715-9.3829-6.737-12.0468c-4.6166-3.0575-8.9743-0.2036-13.173-2.6433c0.2279-6.2356-3.8218-5.2434-8.6-4.1499
		c-4.282-1.7461-5.1354-10.6711-8.53-0.77c-3.6267-3.5103-6.132,2.7869-10.99-1.1001c-3.3598,4.5511-4.3663,5.0291-9.9301,3.04
		c-3.3118,0.2268-4.6251,1.8167-3.94,4.77c-2.4091,0.1731-4.5258,1.0498-6.35,2.63c-3.6024,3.1378-8.3569,2.613-10.765,7.0162
		c-1.7527,3.2048-2.1904,8.4896-7.245,4.8838c0.3088-1.9788,1.2089-3.6421,2.7-4.99c-5.4757,2.364-2.5158,7.9451-8.2072,10.2073
		c-3.4367,1.3662-6.5897,3.5109-8.9064,6.4202c-3.2501,4.0815-0.8671,3.9321-0.9531,8.2225
		c-0.0661,3.2983-4.621,4.4371-6.9348,5.5841c-4.6475,2.3038-2.4666,3.8149-3.9037,8.2167
		c-2.1039,6.4441-0.3568,9.108-7.4448,11.6892c2.0878,0.1799,4.1779,0.3299,6.27,0.45c-0.6395,2.0735-1.5784,4.2991-4.18,4.27
		c0.0302-1.21,0.0601-2.42,0.09-3.63l-2.01,0.17c0.5917,3.7192,1.6995,7.3032,2.1463,11.0456
		c0.1202,2.5126,0.7681,4.8807,1.9437,7.1044c-1.2848,2.6815-1.9925,3.8311-1.9612,6.9137
		c0.0603,5.9522-4.2707,6.1746-0.9325,12.015c3.0837,5.395-1.7531,8.9088,0.8138,15.4313c1.3121-1.5474,2.1666-5.5472,5.19-3.91
		c-2.9366,4.5987-6.339,9.2972-3.9644,13.8037c1.3918,2.3739,2.4066,4.8994,3.0444,7.5763c3.0859-1.3715,4.7593-0.6915,5.02,2.04
		c1.8298-0.2858,4.4242-4.7144,5.58-1.8385c1.2725,3.1663,0.2866,3.747-2.64,4.4285c2.7601,2.3431,4.6296,5.5604,5.46,9.07
		c4.1072-11.1375,5.8661,7.1159,8.0262,9.86c3.8853,4.9356,11.6472,9.1212,16.8937,12.5099
		c0.8718,8.1298,2.1898,16.9769,0.98,25.1201c-2.7999,5.3737-11.4434,7.5543-16.6098,9.3677
		c-15.9824,5.61-33.147,6.1469-49.2844,11.1983c-7.3163,2.2902-16.967,4.9818-22.6357,10.3839
		c-5.3773,6.5273-10.0631,16.437-13.6475,24.1143c-14.1292,30.2627-6.6722,70.8105-3.0994,102.6917
		c1.9281,17.2047-1.7852,34.53-0.4132,51.5542c0.7447,9.2136-0.7625,17.8154,2.47,26.6699
		c3.2585,9.6825,7.5985,18.9825,12.7214,27.8152c8.6558,14.9241,19.585,29.053,31.4537,41.5713
		c6.7458,7.115,7.1758,9.5641,6.0735,20.1433c-0.9679,9.2893-2.4144,18.5227-4.3036,27.6692
		c-3.8488,18.6334-8.3616,37.2075-10.1751,56.191c-0.5746,20.0791-2.0234,39.9847-3.3967,60.006
		c-0.6427,9.3693-1.1093,18.8839,0.7567,28.1541c3.6324,6.0341,9.2433,11.0054,11.13,18c1.0301,7.4907-0.608,15.913,3.2415,22.7842
		c4.4634,7.9669,1.6318,17.8292,1.2472,26.6471c-0.8451,19.3759,0.31,38.7427-1.4158,58.0743
		c-0.8641,9.6798-1.548,19.375-2.1259,29.0758c-0.2891,4.8516-0.5516,9.7046-0.7971,14.5586
		c-8.1454,3.3844-8.8771,3.3544-8.8348,12.3765c0.0265,5.6586-1.9952,11.1724-1.9301,16.6675
		c0.075,6.327,5.1741,9.6644,7.2424,15.006c1.6428,4.2426-1.5634,9.6644-2.5629,13.7192
		c-1.5998,6.4896-2.8964,13.0361-4.9346,19.4136c-1.1379,3.5605-4.2515,9.4668-2.5062,13.2465
		c2.3524,5.0942,12.8834,7.2593,17.6364,8.9208c5.4018,1.6995,10.9136,3.0116,16.3484,4.5964
		c2.7206,0.7786,5.4056,1.6652,8.0549,2.6597c5.9818,2.2802,3.4761,4.6299,2.1873,10.0614
		c-2.576,10.8564-3.366,22.8395-11.7936,30.6418c-6.1307,5.6758-14.5884,21.2667-0.9847,23.7272
		c12.12,2.1921,26.209-0.7491,38.1987-2.681c6.1194-0.9861,13.1511-1.8223,18.8689-4.2955
		c4.2716-2.0298,3.9417-12.2773,4.6519-16.0774c1.111-5.9446-0.7682-11.8962-1.2209-17.8048
		c-0.5559-7.2544,0.5479-14.9296,1.1394-22.1654c1.0557-12.9131,6.9804-17.9581,12.2512-28.9937
		c4.9077-10.2754,0.0933-23.2841-0.7372-33.9813c-1.218-15.6876-1.787-31.4038-1.8448-47.1305
		c-0.2083-56.7546-2.9582-166.9438-3.1796-165.1469c0.5909-20.7942-1.1572-41.8008-1.08-62.66
		c4.2592-0.5325,8.357,21.7456,9.53,26.2999c1.8013,6.0363,2.9362,12.2383,4.2992,18.3802
		c0.4946,2.2286,7.2717,37.2799,8.4557,46.1741c1.2989,9.7565,1.9459,19.5846,3.1757,29.349
		c2.3768,18.8722,3.1529,37.9138,2.592,56.9268c-0.5212,17.6686-1.2032,35.2362-1.1179,52.9408
		c0.0787,16.3585,2.8904,36.2289-4.5663,51.4784c-3.2754,6.6986-8.3183,9.3005-7.9685,17.7408
		c0.2787,8.7003,2.5275,17.1962,2.828,25.8947c0.6074,17.5814-17.174,25.1387-12.408,44.1653
		c3.0466,7.3534,8.5632,12.4269,9.8181,20.6257c1.0776,7.04,0.5535,14.2662,2.1697,21.2343
		c3.9974,17.2329,20.7246,24.2854,36.9768,22.9934c17.6299-1.4015,22.4421-16.3939,35.1953-25.3834
		c12.1295-9.3464,32.4844-20.1427,31.12-38.3199c0.103-14.618-17.0204-23.9047-16.282-38.4224
		c0.3613-7.1044,7.866-11.5488,11.7898-16.8065c5.6491-7.5697,3.5353-17.824,3.6832-26.6671
		c0.1508-9.0221-0.6944-12.4041-6.1622-19.3008c-4.6686-5.8885-1.4609-17.9543-1.2734-24.9637
		c0.5321-19.9032,1.2655-39.7938,1.37-59.7032c0.2043-38.9381,1.9643-77.7817,1.9996-116.719
		c0.0132-14.5414-0.0256-29.0826-0.0673-43.6239c-0.0351-12.2473-2.7126-37.8207-2.8577-36.6833
		c-0.1317-17.6387-0.1435-35.1671-1.3405-52.7899c-0.4559-6.7122-0.6931-13.4341-0.7874-20.161
		c-0.108-7.7036-2.7786-15.4729-2.0869-23.1381c1.369-15.1691-0.4111-29.2522-3.6227-44.2644
		c-1.4811-6.9231-4.1055-14.3927-3.4826-21.5566c-0.6443-2.6555-1.2526-5.3192-1.825-7.9912
		c-0.2068-1.0009-7.687-36.2546-7.9575-51.813c-0.2718-15.6367-0.463-31.3149,0.9825-46.9058
		c7.2543,0.5652,13.7172,21.7488,17.4161,27.7117c3.1251,5.0378,12.2744,4.9729,16.7939,1.3683
		c8.0784,0.0454,7.0605,6.0171,9.0399,13.1329c7.0153,25.2191,30.4482,39.4097,55.35,42.1471
		c-3.5675,0.4578-2.9158,0.8414,1.9551,1.1508c4.1744,0.4724,8.3805,0.3649,12.5649,0.6792
		c3.4825,2.3402,2.9132,10.8098,2.8453,14.1051c-0.3482,16.9073,0.5818,32.8827,3.6884,49.5325
		c1.3581,7.2787,2.7993,14.5459,3.8463,21.8782c0.744,5.2104-0.6545,15.9406,1.845,20.3843c1.7949,3.191,1.5397,8.3126,1.8749,11.85
		c2.5322,7.5376,5.4095,25.7886,6.1338,28.6125c1.223,4.7688,2.3241,8.5004,3.0912,12.9263
		c1.6807,9.697,2.9849,24.8555,3.305,22.7112c1.5339,48.1971,4.8771,97.1488,0.6381,145.413
		c-0.6639,7.5593-3.0784,21.7966,1.562,28.4171c4.7473,7.2496,15.0046,2.9319,20.9825,7.66
		c7.8439,6.2039,4.8596,21.2948,5.1375,29.87c0.0397,13.0588,1.7078,26.1633,2.15,39.23c1.1848-6.9984,1.8753,4.031,2.3611,5.4893
		c1.8929,5.682,4.6573,11.0321,7.0237,16.4973c2.6113,6.0311,5.3979,11.983,8.3864,17.8365
		c8.0845,15.8352,8.4059,34.8593,7.8289,52.4097c-0.5577,16.9644-1.9547,33.7679-6.694,50.0795
		c-3.9953,13.751-15.5186,34.8427-5.736,48.5477c8.47,13.4449,32.2109,13.7194,45.895,13.7312
		c20.0355,0.0175,31.0437-7.0322,30.8715-28.5685c-0.0342-4.2822-0.1569-8.6047,0.6035-12.8428
		c4.1422-0.2101,8.2882-0.3909,12.4178-0.792c8.074-0.7841,16.6207-2.0233,24.0115-5.5309
		c18.0129-8.5488,19.8409-31.4291,17.0341-48.7914c-5.2469-32.4547-30.4481-72.9733-14.4726-105.4026
		c7.1609-14.5361,14.9435-28.6886,22.4427-43.0474c3.9802-7.6208,4.418-13.0206,12.8036-16.1035
		c7.8535-2.8872,11.882-11.0419,14.853-18.1722c6.0735-3.0359,4.8101-35.0438,5.6324-41.1074
		c2.608-19.2316,3.3179-38.9419,4.8657-58.2709c2.947-36.8002,7.8154-73.8966,9.2877-110.7357
		c0.367-9.1823,3.0066-33.281,3.3228-41.801c0.4377-11.7902,0.221-23.6312,0.2586-35.4283
		c0.0677-21.2242-0.7861-42.0916-4.0179-63.0896c-3.238-21.038-7.6697-41.7372-14.6641-61.8081
		c-3.8016-10.9089,0.4357-15.219,11.04-16.7382c3.5795-0.5128,9.5146,0.0332,7.9773-5.1007
		c-0.3877-1.2947-8.3108-24.7592-9.7346-34.3077c-1.7654-11.8395-1.7648-24.4456-0.9825-36.3973
		c1.4869-22.7195,4.0818-44.5153,7.4747-66.965c0.1866,0.3766,5.4733-31.9454,8.5-32.61c1.0826,2.3047,4.9284,15.2158,5.13,15.17
		c0.1743,1.5934,2.0892,7.6404,1.93,6.9901c0.2443,1.1605,19.9955,60.1269,24.6537,68.1325
		c3.3708,5.7931,7.4552,10.8241,12.3588,15.3826c3.0197,2.8071,6.314,5.1245,9.8625,7.2274
		c1.5033,0.8909,20.2248,7.0073,26.775,8.9275c3.7969,2.8358,2.4812,8.2192,2.5112,13.8313
		c0.105,19.6085-0.9032,39.9617-2.0313,59.5587c-0.2999-5.5192-2.6298,47.8527-5.52,79.92
		c-0.3528-0.4189-2.8375,28.1707-3.3397,42.5228c-0.5166,14.7643-0.899,29.5509-1.4113,44.3411
		c-0.4301,12.4174-3.1287,25.0331-3.7302,37.6898c-0.6884,14.486-0.4799,29.5347-0.0941,44.0581
		c0.368,13.8566,0.1922,25.7346,5.2285,38.9242c2.3111,6.0526,5.3975,11.8883,9.7368,16.7439
		c4.7065,4.9315,5.3036,10.8248,7.7662,16.8943c9.7757,24.0945,27.6625,48.8575,47.9438,65.1658
		c5.83,3.9784,12.5006,7.0195,12.6055,14.5347c0.1066,7.6317-0.6007,14.8633-1.899,22.3773
		c-2.392,13.8428-6.4812,27.3567-7.5349,41.401c-2.0454,27.2618-4.3857,55.9977,14.8434,78.1045
		c14.1757,16.297,56.1925,12.3142,69.4601-4.62c7.9724-10.1758,5.3789-26.9126,4.95-38.915
		c-0.4828-13.5137-2.5681-26.8965-3.6284-40.365c-1.0544-13.394-0.3013-27.0912-0.3838-40.5469
		c-0.0449-7.3243-0.0879-14.6489-0.0811-21.9735c0.0143-15.5365-16.3495-38.598-1.3933-50.2245
		c13.115-10.1952,18.9294-24.4496,22.3447-40.5227c1.709-8.0422,2.0159-16.9714,1.1404-25.1635
		c-0.9556-8.9447-7.0574-11.9734-13.6536-16.4865c-4.7382-4.2235-2.3503-14.0654-2.5961-20.0155
		c-0.4344-10.5223-1.5516-21.05-1.8524-31.5664c-0.5515-19.2888-0.4929-38.734-0.2202-58.0305
		c0.2263-16.0133,0.4048-36.8477,5.5647-52.1699c2.9006-8.613,8.3059-16.2509,11.7627-24.6556
		c3.61-8.7777,6.4198-18.0055,11.7615-25.952c2.9877,11.8949,1.0916,25.9406,1.1876,38.1372
		c0.2123,26.9648,1.4749,53.9507,2.0189,80.9291c0.5537,27.4469,0.7321,54.8978,1.0283,82.3453
		c0.026,2.411-0.0192,4.8176,0.1025,7.2274c0.4282,8.4786,0.6646,16.5017-0.0139,24.9857
		c-0.6465,8.0815-2.9592,14.9893-5.8309,22.472c-3.2823,8.5525-1.4312,19.0468-1.3258,28.0035
		c0.1106,9.3977,0.5576,18.6649,1.0033,28.0442c0.4143,8.7159-2.6823,15.7332-4.5302,24.1855
		c-2.2905,18.9518-5.5864,37.5492-6.563,56.7383c-0.8953,17.5923-4.558,35.5828-2.9585,53.231
		c0.7788,8.5911,6.4071,12.9562,10.8499,19.7075c5.0754,7.7124,0.9763,20.5422,0.2693,29.1438
		c-1.5002,18.2505-2.0928,36.2136-4.6614,54.4819c-1.833,13.0363-15.9727,40.8856-3.8934,51.2344
		c12.0178,10.2961,32.6669,7.3462,47.0477,5.1249c13.0671-2.0184,39.2476-3.7098,45.3142-17.9254
		c3.4305-8.0389-0.8171-17.1953-3.0447-24.9264c-3.1177-8.8473-4.8301-18.1099-6.1357-27.3752
		c-2.6655-18.9147,3.3843-31.6887,19.8115-41.2476c12.938-7.5284,30.7323-10.4869,40.5049-22.2094
		c11.1968-13.4307,5.979-41.0922,5.6162-57.3964c-0.3997-17.9669-1.8309-33.2954,2.37-50.9185
		c4.1519-17.417,19.5292-24.9777,27.1837-40.1219c7.4432-14.7261,3.3735-33.3895,2.6316-50.9194
		c-0.4438-10.4856,0.7271-22.5166,1.8252-32.9835c1.0901-10.3889-0.8232-21.3235,4.7988-30.7019
		c2.8073-4.6831,5.9219-0.5073,8.6907-5.3512c2.3491-4.1099,2.6365-9.4629,2.73-14.0668
		c0.2078-10.2308-1.937-20.0731-3.2522-30.1438c-2.8743-22.0099-4.6729-75.2117-4.7502-77.8024
		c-0.236-7.9126-0.0166-15.835-0.4546-23.7421c-0.4017-12.874-1.8098-25.5714-1.4265-38.4982
		c0.1897-6.3967,1.9534-7.2393,2.175-12.4452c0.3312-7.7733,1.4663-15.4751,1.713-23.2596
		c0.2433-7.6823,0.0894-15.3693-0.0691-23.0514c-0.1029-4.9948-2.3925-13.969-2.6124-13.7256
		c-3.8711-17.0332-9.4604-35.2247-10.0525-53.9425c-0.2338-7.3928-1.4352-14.7865-2.7107-22.059
		c-0.7251-4.1337-1.3047-8.0413-2.4672-12.142c-0.5824-2.1602-1.1644-4.3187-1.7469-6.4789
		c-0.7129-2.9731-1.5239-5.9263-2.2928-8.8903c-0.635-2.4479-1.132-6.5237-1.1495-9.0525
		c-0.0376-5.4196,0.0813-10.8391,0.2971-16.254c0.4075-10.2185,1.1619-20.4186,1.8622-30.6201
		c0.2968-4.3226,0.5844-8.646,0.8339-12.9717c1.4528-25.1931-1.4589-52.05-1.7164-75.394
		c-0.2516-22.8055-6.5428-46.8262-9.9669-67.9752c-0.9185-5.6532-4.9109-15.9147-4.8901-23.15
		c0.047-16.6572-1.1191-33.4674,1.4644-50.0652c1.4126-9.0742,3.8499-17.9879,7.2402-26.5226
		c1.4993-3.7742,2.9524-8.4232,5.7262-11.4086c3.1239-3.3623,6.1715-6.8616,9.1593-10.3636
		c3.1581,6.7573-0.1903,26.8291,8.5603,26.6473c3.9304-0.0815,9.2666-1.1819,11.217,3.197
		c2.9048,6.522,4.3562,13.8555,6.6782,20.6104c3.7106,10.7948,9.2385,20.9224,12.6244,31.8153c0.3462,5.3607,3.6903,7.264,5.53,12.2
		c2.3136,10.1169,0.4044,20.5357,3.207,30.8341c3.1543,11.5906,6.0647,23.5446,9.558,34.9722
		c3.9827,13.0283,11.479,27.7766,20.6949,39.1437c1.3271,6.9615,10.9193,16.0997,14.9559,22.3541
		c1.3917,2.1563,11.0356,20.1339,12.1541,19.9659c2.611,5.7635,4.9207,9.9974,8,14.3c2.9946,6.9622,4.4592,16.1135,4.0901,24.55
		c-0.3496,7.9893-8.0427,12.2496-10.1301,18.29c-2.7571,6.5173-3.4259,13.918-1.8098,22.9778
		c1.7418,9.7651,2.3162,15.4021,10.72,22.3123c1.5049,2.3779,2.2013,4.1477,2.1306,7.3743
		c-0.1875,8.5417-5.1548,7.96-11.8207,7.1458c-0.7484,16.7256,25.3369,20.967,37.3038,20.9199
		c6.6531-0.0261,12.1057-3.3511,14.7141-9.5208c2.9746-7.0361,2.1696-14.3715,1.3174-21.7216
		c-1.8806-16.2223-3.6636-32.4221-6.1631-48.5315c-1.6123-10.3903-3.1832-20.8428-3.1832-31.3707
		c0.5201-7.8413,1.3003-15.6702,1.9795-23.4997c0.1896-2.1866,0.3829-4.3921,1.0236-6.4913
		c0.707-2.3165,2.2196-3.7096,3.4023-5.6915c1.231-2.0627,2.2461-4.3544,3.3766-6.4729c2.1075-3.9494,4.146-7.938,5.8596-12.0736
		c2.8209-6.8077,5.2672-13.7675,7.4243-20.8126c1.3107-4.2808,2.5149-8.594,3.6324-12.9291
		c0.429-1.6637,7.8945-36.1514,8.1967-51.7927c0.2789-14.4412-2.6429-32.9271,5.0568-43.9902
		c2.02-2.9027,3.5591-6.1128,4.2794-9.5751c1.3606-6.5399,2.7014-13.0664,4.345-19.543
		c3.1566-12.4388,17.6578-45.8966,18.5327-46.9457c4.2798-5.132,6.5525,4.8557,7.4384,7.4395
		c3.7772,11.0159,6.4637,23.2367,9.0742,34.6062c5.3427,23.269,7.4536,48.2699,7.3884,71.859
		c-0.0608,21.9974-4.2776,47.1301-10.6074,68.3944c-5.7595,19.3478-18.4009,66.6856-18.8328,69.2176
		c-0.6714,3.9363-1.3701,7.8619-1.9537,11.8138c-0.1185,0.8025-3.1051,28.9286-4.6176,39.3363
		c-1.6697,11.4901-0.9126,23.2771-0.969,34.8594c-0.1067,21.9651,4.5083,65.2123,4.8015,64.8356
		c4.1067,29.0852,15.217,55.9082,22.73,84.1801c7.9988,32.1768,18.9048,63.8258,29.22,95.46
		c9.2019,30.4465,18.8804,60.2754,24.6201,91.5601c0.9083,6.3591,3.4185,13.2046,5.0966,20.2914
		c1.1237,4.745,1.5422,19.806,5.2234,20.6686c-0.2552,16.9321,4.1359,28.2946,3.2201,45.95
		c1.6802-7.6824,0.8799,9.6553,0.8937,11.4904c0.048,6.3613,0.051,12.7229,0.0339,19.0844
		c-0.036,13.4148-1.004,26.7556-1.1764,40.1545c-0.1571,12.2202-0.4949,25.3706,7.6062,35.2458
		c7.8223,9.5352,13.7393,15.3317,13.6414,28.4376c-0.1068,14.2623,0.0872,28.5331,0.0667,42.7976
		c-0.0084,5.8221,0.137,11.6449,0.1127,17.4652c-0.0348,8.3331-3.6454,13.4396-7.6781,20.5145
		c-2.0049,4.5175-2.2184,9.744,1.5452,13.2963c1.5339,1.4185,3.2188,2.6263,5.0547,3.6237c0.0151,4.2623,0.12,8.5238,0.1162,12.7861
		c-0.0104,11.7185-6.6858,37.2557-7.0061,38.1439c-1.3835,3.2155-9.0532,27.9539-9.2799,30.9583
		c-0.7594,10.0695,2.0856,16.9323,9.7386,23.4592c2.6304,2.2434,3.7495,2.4495,6.855,4.0801
		c3.0405,1.5964,26.8147,7.7545,38.585,7.1113c14.3928-0.7864,16.2603-13.103,16.24-24.9218
		c-0.0166-9.7107-1.8048-20.5243-3.842-29.0708c-1.3389-5.6171-10.0186-49.1786-9.8442-61.4537
		c0.0691-4.8682-1.6649-13.5756,2.4053-17.1555c4.5313-3.9855,8.7207-8.0432,12.2412-12.9797
		c13.5404-18.9858,20.5306-44.1088,21.0266-67.2588c0.115-5.3616,0.4077-10.741,1.4257-16.0166
		c0.7937-4.113,2.0199-8.1284,3.2437-12.1345c2.3752-7.7753,4.7505-15.5504,7.1257-23.3257
		c2.248-7.3588,4.6892-14.3711,4.8973-22.1222c0.0706-2.6311,4.8301-60.3392,3.812-86.8496
		c0.2717,2.0297,1.5088-26.1626,2.3501-42.23c0.3301,0.3066,2.5458-25.2368,4.4399-38.11c0.5847-7.5446,1.179-15.3427,1.353-22.8885
		c0.1671-7.2493,0.7939,0.4141,0.9376-7.5664c0.0433-2.4073,2.1134-36.9041,1.8331-39.9817c-0.24-2.6367,0.7836-5.024,1.5651-7.5508
		c1.9288-6.2369,3.9752-12.4374,6.1378-18.5972c3.432-9.7761,7.1563-19.4497,11.1665-29.0034
		c1.9282-4.594,3.8308-9.1544,5.5326-13.8391c0.8036-2.2124,1.5825-4.434,2.3387-6.6631c0.5688-1.6768,1.9556-4.1732,1.9556-5.9398
		c0.1233,0.3867,4.0344-8.9076,5.63-14.7899c0.2333,0.2766,11.1395-34.5261,11.5099-34.5051
		c0.4976,0.0283,5.1287-17.1466,5.54-18.6449c0.6555-2.5747,20.05-63.3866,50.3921-84.7924
		c8.9526-6.3159,14.6731-16.2742,21.8142-24.5852c3.1747-3.6947,15.2092-22.6106,19.2137-22.1525
		c2.5631,0.2954,3.6149,23.4399,4.0577,27.0852c1.0774,8.8696,5.2017,31.4441,5.5696,32.9989
		c1.1948,5.0471,3.1334,9.8893,4.0327,15.0059c-0.0676-0.2378,13.552,39.6787,13.8278,40.6396
		c1.1329,3.9495,8.8202,26.8265,8.1036,31.0498c-0.6514,3.8396-1.5851,7.4752-2.8064,11.1705
		c-3.0997,9.3782-5.1948,22.1364-5.665,31.9901c-0.1866-1.2833-1.1418,4.0375-2.0601,7.88
		c-0.1633-0.3867-4.1708,23.5966-6.6052,35.6691c-1.5375,7.6243-3.0339,15.2566-4.5034,22.8942
		c-0.5875,3.0549-1.1711,6.1106-1.751,9.1669c-0.2738,1.4429-9.3845,43.4396-14.6504,60.7566
		c-2.677,8.8037-5.4418,17.5938-8.8503,26.1469c-1.0818,2.7146-8.4956,21.9791-8.3896,25.6263
		c9.293,4.7108,17.842,9.2266,27.8501,12.3401c-0.3733,0.1166-0.7468,0.2333-1.1201,0.35
		c8.4556,1.2451,15.0135,3.5231,24.197,3.5746c10.8499,0.0608,8.259,20.0239,7.286,30.1232
		c-2.4686,25.6248-0.9537,51.5271-2.3729,77.2522c-0.24-0.3467,2.5177,50.0642,2.96,51.9c0.4791,3.8295,0.7625,1.924,2.54,6.96
		c2.3655,5.5194,5.5095,10.3615,9.1599,15.7301c2.324,3.4177,6.5364,8.9814,8.1901,11.7899
		c0.6027,1.2953,1.9503,3.8358,3.3507,6.4183c3.2786,6.0464,5.2296,12.7485,5.4867,19.6217
		c0.677,18.0991-3.6385,34.7267-6.9321,53.2207c-3.5621,20.0013-2.3466,39.3766,12.0222,54.9017
		c5.7911,6.2572,13.0443,11.2017,21.1224,13.9875c11.7887,4.7606,16.2261-14.1699,16.9401-21.72
		c1.9744-20.6927-2.2991-66.1304-2.5409-67.7852c-0.8875-6.0743-2.0525-12.1028-3.1765-18.1364
		c-0.843-4.5264-1.6638-9.0585-2.3271-13.6154c-0.261-1.7936,0.2721-46.4861,0.6146-65.7295
		c0.3367-18.9153-0.9906-45.2111-1.2101-39.4937c-0.1858-34.8845-4.9529-72.0468,4.02-104.4301
		c0.1799,0.5333,2.3596-5.6888,3.41-9.2899c4.1829-0.1104,8.3676-0.0398,12.5499,0.0499c0.1603,8.2469,0.241,16.4857,0.1587,24.7344
		c-0.0243,2.4462-0.3567,23.1718-0.7136,23.1156c0.1075,0.017-3.3588,49.4642,2.8248,70.829
		c6.6432,22.9526,8.5332,44.7947,7.2902,68.6648c-1.2258,23.5387,1.5249,47.0991,1.4888,70.6362
		c-0.0345,22.46,2.645,46.4595-1.2488,68.65c-0.8149,9.7283-3.7126,19.3014-8.5376,27.7948
		c-5.2584,9.2568-15.2507,20.0879-17.8149,30.3811c-2.1362,8.5745,2.186,12.0736,9.9813,14.1931
		c6.1469,1.6714,25.735,3.4507,30.4513-0.6589c22.5913-5.1782,21.0742-39.1716,21.1265-56.5952
		c0.0688-23.0242-0.5112-46.0767,0.0935-69.0948c0.6208,5.6486,0.2178-11.5245,2.22-25.4
		c0.2834,0.3667,2.6108-25.5159,2.7837-29.5625c0.3638-8.5084,1.4106-17.3141,2.2551-25.8075
		c0.8293-8.3445,0.7983-16.8297,1.821-25.1367c0.6824-5.5421-1.5532-21.5988,1.3801-25.7733
		c2.6667-3.7948-1.4082-51.0564,1.0549-50.9149c-0.9663-0.0555,8.2761-47.0487,8.7151-51.475
		c0.1484,1.1606,5.5381-23.5822,7.0798-34c2.6204-12.9043,14.7354-15.026,25.5828-17.4426
		c11.5012-2.5624,22.8586-4.7781,34.1375-7.2574c4.3335-0.9865,24.6101-7.2229,24.9561-12.0938
		c0.1548-2.1743-1.5503-4.8761-2.2161-7.8063c-2.0894-5.9003-7.7764-15.812-11.73-23.3199
		c-5.4385-14.6544-19.7603-44.4434-19.9302-44.14c-8.8406-27.0525-21.1841-49.8826-33.2239-77.7462
		c-8.2026-18.9836-17.8145-37.0947-27.5212-55.3278c-2.1458-4.0302-4.4756-7.9625-6.4651-12.0751
		c-0.9731-2.0117-1.7373-4.0675-2.5276-6.141c-0.7886-2.069-1.4907-3.7421-1.3872-6.0333c0.0952-2.103,0.6357-4.1572,1.1733-6.1927
		c1.123-3.0883,1.7102-6.4951,2.5544-9.6703c0.8574-3.2251,1.5332-6.4919,2.0686-9.7859c0.3191-1.9634,0.6755-3.9269,1.0105-5.8925
		c0.4958-2.911,1.4209-5.7922,2.1758-8.6635c1.5923-6.0562,3.0952-12.1394,4.3047-18.285c0.5703-2.8993,1.0764-5.8124,1.7324-8.6942
		c0.3269-1.4359,0.6895-2.8641,1.1162-4.2738c0.3853-1.2734,0.7412-3.1482,1.5676-4.1863c0.4119,1.4382,0.2053,3.3251,0.3025,4.8364
		c0.1069,1.6572,0.2351,3.3129,0.3804,4.967c0.292,3.3234,0.6536,6.6404,1.0508,9.9528c0.7979,6.6563,1.741,13.2939,2.5708,19.9462
		c1.4968,11.9972,2.3428,32.0243,2.657,29.9352c1.2341,8.848,0.3337,17.5081,6.0593,24.925
		c6.6533,8.6191,17.3235,13.6404,24.9451,21.4215c12.9353,13.2063,26.373,25.213,39.9255,37.8035
		c12.6599,10.7635,24.8132,22.8951,27.5469,39.4404c1.5469,9.361,0.8806,15.2325,5.5732,23.1796
		c3.0503,5.6637,12.7566,17.9307,19.3501,18.25c-0.5125-4.6912-5.4761-9.9807-7.01-13.0801
		c-1.5808-4.9891-4.0801-8.0416-4.03-13.2999c8.3687,0.4597,14.0784,11.6688,17.1599,18.23c0.751,1.3793,3.8982,6.1564,5.21,8.78
		c1.0649,2.5697-1.8826,4.0184,1.4001,6.62l0.2-1.5801c4.2625,0.7996,5.1733-5.8584,4.98-9.3199
		c-0.5359-19.2665-0.9878-30.1331-13.0828-45.7202C2032.3445,1291.6935,2025.7227,1284.8223,2019.6616,1277.4934z M181.09,930.24
		c-3.1,1.33-3.57-3.84-2.27-5.5C181.74,922.79,181.28,928.54,181.09,930.24z M182.57,847.55c-1.52,1.23-2.89-1.52-1.54-2.48
		C182.54,843.8101,183.92,846.5701,182.57,847.55z M279.24,805.61c-1.0969-1.3706-1.8835-2.9006-2.36-4.59
		c2.5331,0.0886,4.5858,1.9551,4.91,4.47C280.94,805.53,280.09,805.5701,279.24,805.61z M852.3237,779.3137
		c0.1792,4.9023-0.9451,9.9785-1.0941,14.9866c-0.1907,6.4089-1.5201,14.2466-2.2496,21.8497
		c-0.25-0.4733-2.9064,20.3289-4.08,31.84c-0.2899-0.3999-6.0618,27.7552-6.87,30.88c-1.3943,5.3904-3.604,10.6-5.4763,15.8348
		c-1.8301,5.1169-3.177,10.1833-5.5698,15.0765c-3.2214,6.5878-3.2252,14.1791-5.0217,21.2101
		c-2.2576,8.8358-11.4599,54.3856-11.6222,64.1885c-2.6964,8.3153-1.2249,19.1976-1.2217,27.842
		c0.0037,9.9307-0.3718,19.7408-0.7083,29.598c0.0038-0.1108-5.3508-0.1591-5.8977-0.146
		c-2.0444,0.0483-4.1658-0.1169-6.0034-1.0933c-1.0471-0.5563-1.9477-1.3473-2.8358-2.1329
		c-3.6957-3.266-7.3558-6.5726-10.9844-9.9131c-3.4179-3.1465-6.758-6.2554-8.9957-10.3975
		c-1.0139-1.8767-1.7645-3.882-2.5118-5.8799c0-0.4616-0.4365-1.1671-0.6002-1.6046c-0.2364-0.6321-0.4728-1.2642-0.7093-1.8964
		c-0.4547-1.2156-0.9094-2.4312-1.3641-3.6468c-0.4056-1.0844-0.7245-2.2778-1.3794-3.2056
		c-0.2238-0.3171-0.3715-0.5279-0.5175-0.889c-0.8664-2.1443-1.5894-4.3563-2.3519-6.5389
		c-0.4594-1.3149-0.9158-2.6311-1.3607-3.951c-0.1844-0.5472-0.6083-1.317-0.6083-1.9067c0-7.9896-4.8617-16.4459-5.0966-24.6248
		c-0.2518-8.7637-0.9078-17.0826-0.9634-26.4571c-0.0379-6.4108-3.7632-10.8162,0.92-20.8262s6.01-32.2033-4.07-48.19
		s-21.7809-21.1058-22.023-21.3486c-1.9645-1.9703,23.9603-18.7476,31.6012-25.3347c3.0707-3.2795,6.1414-6.5592,9.212-9.8387
		c3.0135-3.2184,6.0302-6.4391,9.2286-9.4762c1.6281-1.5461,3.3017-3.0457,5.0411-4.4658
		c0.8301-0.6777,15.4872-16.6378,20.9476-23.3169c5.4362-6.6494,10.6669-13.4626,15.9424-20.239
		c4.6689-7.0037,9.8473-13.408,15.2037-19.8337c3.2794-3.9342,9.839-14.8389,14.0863-15.2864
		C853.9229,745.7383,852.2339,776.8536,852.3237,779.3137z M1716.79,983.67c-0.3579,0.0847-0.6238,0.152-0.8226,0.2062
		c-22.7473,5.6263-30.9296,17.7538-41.8051,38.1898c-5.5831,10.4911-10.6869,20.7094-15.2424,31.6941
		c-3.9563,7.267-12.4299,26.1709-21.5399,25.74c-0.536-11.3459-2.9613-20.8276-5.0504-32.114
		c-1.3203-7.1335-2.9296-13.307-4.5035-19.5321c-0.798-3.1561-2.8518-8.1811-3.436-10.4238
		c-2.2662-8.7001-3.6041-17.6647-5.7311-26.41c-2.3529-9.6748-5.0485-19.2663-8.0798-28.7505
		c-2.8022-8.7672-6.135-17.3419-8.9008-26.1002c-2.9402-8.6043-7.1941-16.6749-11.5105-24.651
		c-2.9393-5.4314-5.9386-10.8391-8.5948-16.4171c-2.8265-5.9074-5.1671-11.9934-6.8115-18.3391
		c0.052,0.3776,0.1038,0.7552,0.1558,1.1328c-2.2612-6.7274-4.5222-13.4547-6.7833-20.1821
		c-1.7748-5.2805-2.0162-10.5222-2.6327-16.0189c-0.6447-5.7489-1.2954-11.5145-1.1611-17.3096
		c0.1296-5.583,1.5243-11.2277,2.6816-16.6632c1.4738-6.922,3.1235-13.8046,4.6986-20.7037
		c0.4203-1.8408,0.8365-3.6826,1.231-5.5292c0.4574-2.1412,0.442-4.1947,1.2134-6.2535c1.7456-4.6587,3.241-9.4119,4.4586-14.2358
		c0.2797-1.1079,0.8064-4.5322,2.7976-3.5596c1.5043,0.7349,2.2292,4.8484,2.6833,6.3176c2.3308,7.541,4.6616,15.0818,6.9924,22.623
		c2.6855,8.6886,5.4036,17.412,9.2982,25.6509c4.0458,8.5587,9.6539,16.1194,15.4655,23.5459
		c2.4197,3.092,4.8721,6.1588,7.2756,9.2638c10.2975,13.3033,21.0111,26.2587,31.4734,39.6489
		c12.7124,16.2703,25.5349,32.4597,38.1516,48.8042c11.213,14.526,27.588,31.6547,33.979,49.0262
		C1723.481,983.1273,1720.1288,983.4294,1716.79,983.67z"/>
</g>
</svg>
